<svg version="1.1" id="Layer_1" xmlns="http://www.w3.org/2000/svg" xmlns:xlink="http://www.w3.org/1999/xlink" x="0px" y="0px"
	 width="100%" viewBox="0 0 512 512" enable-background="new 0 0 512 512" xml:space="preserve">
<path fill="#000000" opacity="1.000000" stroke="none" 
	d="
M244.924149,114.480141 
	C260.572479,109.287170 272.435791,116.281479 281.601257,126.902618 
	C286.851746,132.986969 289.586365,141.651382 291.714386,149.839600 
	C292.634766,153.381195 290.916870,156.664291 289.326477,159.828705 
	C285.125793,168.186783 285.701965,170.568817 292.200012,176.877228 
	C302.155579,186.542282 306.295258,198.349442 304.616791,212.192657 
	C304.136627,216.152710 304.162323,220.173431 302.596863,223.951355 
	C301.954437,225.501724 302.537933,226.880447 303.568939,228.100922 
	C306.332123,231.371933 306.094116,234.864609 304.089417,238.315018 
	C300.733826,244.090347 299.465729,250.794418 295.830872,256.453796 
	C294.471191,258.570770 295.591888,260.429871 296.981018,262.341614 
	C304.230560,272.318420 304.354156,283.303955 301.148956,294.656250 
	C299.734741,299.665222 295.305023,300.526489 290.686615,301.516815 
	C292.083130,304.431854 294.472626,305.425781 296.900787,306.385010 
	C306.698242,310.255524 317.000610,312.305786 327.186340,314.768127 
	C339.472595,317.738373 349.501678,323.492004 354.005615,336.185089 
	C354.172516,336.655426 354.355530,337.130371 354.437073,337.618866 
	C354.688965,339.127350 356.277313,341.239624 354.046997,341.944031 
	C351.422729,342.772888 351.428101,339.937622 350.990967,338.382080 
	C350.254486,335.761383 349.056763,333.439697 347.542023,331.225037 
	C343.057587,324.668579 336.516846,321.258057 329.106750,319.242676 
	C319.798401,316.710938 310.444702,314.345001 301.146729,311.776611 
	C289.802887,308.643066 280.602966,303.060181 277.527039,290.613251 
	C276.920380,288.158386 275.436310,286.522461 272.872650,288.582214 
	C260.461304,298.554199 248.433029,297.230011 236.580688,287.583527 
	C236.119263,287.208008 235.355743,287.203705 234.887772,287.070465 
	C233.701889,287.739258 233.508301,288.734070 233.274261,289.708435 
	C230.536438,301.107025 222.722366,307.363129 212.057480,310.857056 
	C202.555923,313.969879 192.847565,316.272430 183.164154,318.709259 
	C171.738495,321.584473 162.598541,327.300690 159.118652,339.503937 
	C158.738739,340.836182 158.346146,342.885956 156.295273,342.177704 
	C154.304596,341.490295 155.229462,339.635895 155.609894,338.283691 
	C158.429398,328.262085 165.005005,321.610779 174.470657,317.692963 
	C181.427094,314.813660 188.843491,313.517975 196.114380,311.754669 
	C202.604019,310.180786 208.994125,308.329285 215.055634,305.525085 
	C218.090591,304.121033 218.981506,302.183167 215.289719,300.379272 
	C211.281036,298.420624 209.471741,294.817474 208.702057,290.869659 
	C206.664856,280.420807 207.299484,270.315216 214.100540,261.441864 
	C215.460022,259.668152 216.024521,257.936279 214.663452,255.978119 
	C210.906815,250.573578 209.932922,243.937088 206.740097,238.248306 
	C204.973373,235.100525 204.840836,231.384583 207.154404,228.286331 
	C208.811661,226.066940 208.514252,223.992798 207.756180,221.712769 
	C201.565308,203.092606 206.268356,187.285583 220.415710,174.162750 
	C224.422592,170.446045 225.136093,166.377472 222.541077,162.118210 
	C217.499130,153.842697 217.702515,146.127350 223.605331,138.472321 
	C224.844833,136.864883 225.322052,134.882401 225.662277,132.892441 
	C226.097656,130.345810 227.156891,128.027832 229.129929,126.404686 
	C234.125000,122.295395 238.754730,117.691597 244.924149,114.480141 
M249.323929,232.982544 
	C247.258179,233.084259 246.195663,233.928497 246.851852,236.174484 
	C247.263367,237.583038 247.035843,238.876175 245.604324,239.593781 
	C240.800278,242.002029 236.070770,242.976852 230.844818,240.289673 
	C226.396271,238.002228 226.451065,234.819244 228.328720,230.830978 
	C225.561386,230.588943 223.319275,230.392838 221.008514,230.190720 
	C217.628494,234.982880 219.823013,240.074554 220.400360,244.792801 
	C222.343765,260.675201 227.187927,275.236481 240.468826,285.769958 
	C249.501038,292.933685 259.157928,293.614563 268.396057,286.771820 
	C286.082428,273.671295 290.382446,254.756012 290.926117,234.279037 
	C290.977173,232.355469 290.405884,230.637863 287.931030,230.451645 
	C285.420654,230.262756 282.921692,229.921692 279.693756,229.567932 
	C282.672516,232.244843 286.392120,234.422928 283.075012,238.056702 
	C280.356842,241.034332 276.406433,243.036514 272.268463,241.758881 
	C268.860718,240.706726 263.070801,241.684311 264.119354,234.940201 
	C264.260864,234.029938 263.365692,233.624908 262.589142,233.218399 
	C259.191559,231.439865 261.066284,229.660706 262.901276,228.422043 
	C264.664490,227.231781 266.788757,226.563919 268.778748,225.724289 
	C274.827972,223.172012 280.931274,224.010681 287.495422,226.395020 
	C287.075684,224.815674 287.035553,224.126038 286.728577,223.588837 
	C279.971771,211.764236 268.559357,205.904816 256.854645,200.486191 
	C255.766006,199.982208 254.119308,200.065048 252.938919,200.473785 
	C241.535217,204.422577 231.353638,210.138062 224.810257,220.814087 
	C223.800262,222.461990 222.457794,224.182007 223.946533,226.177338 
	C225.265564,226.893524 226.357819,226.328186 227.387314,225.836197 
	C234.266800,222.548523 240.670471,224.501816 247.021011,227.490143 
	C249.438385,228.627625 250.710541,230.260956 250.001572,232.996979 
	C250.001572,232.996979 250.031754,232.967590 249.323929,232.982544 
M240.194290,237.342819 
	C242.063217,235.910660 240.823288,234.950150 239.517471,234.558823 
	C236.759018,233.732178 233.916885,233.297913 230.784348,235.494003 
	C233.783173,237.516235 236.421616,238.459671 240.194290,237.342819 
M273.777802,233.717148 
	C272.247681,234.342850 270.090485,233.679062 269.141937,236.154434 
	C272.288086,237.785049 275.223358,239.032547 278.089111,235.758606 
	C277.392914,233.806427 275.928009,233.691635 273.777802,233.717148 
M218.736084,285.389771 
	C218.980392,283.286072 220.358536,281.100800 218.035156,278.321808 
	C217.447632,281.410736 214.870499,283.685547 218.736084,285.389771 
M292.294495,278.781067 
	C291.211853,281.461456 291.765564,283.979767 293.054016,287.779663 
	C293.957214,283.802582 294.646240,281.186737 292.294495,278.781067 
z"/>
<path fill="#000000" opacity="1.000000" stroke="none" 
	d="
M94.438644,378.689514 
	C93.377174,377.316345 92.482140,376.228577 91.433456,374.954041 
	C89.377090,378.378174 91.477913,381.983185 89.766281,384.899780 
	C87.437050,385.417877 86.991264,383.937897 86.977386,382.354736 
	C86.935135,377.535065 86.994644,372.713776 87.079994,367.894257 
	C87.100479,366.737915 87.276375,365.455048 88.677200,365.110321 
	C90.062553,364.769409 90.802986,365.756714 91.403542,366.801666 
	C93.039131,369.647614 94.656776,372.503906 96.467812,375.683075 
	C99.595604,373.056610 100.791702,369.732727 102.641579,366.886047 
	C103.381584,365.747284 104.129494,364.440704 105.702133,364.848511 
	C107.339355,365.273102 107.236740,366.833923 107.220963,368.158447 
	C107.163528,372.979004 107.101021,377.800110 106.962265,382.618713 
	C106.922821,383.988617 106.580063,385.466064 104.733948,385.216919 
	C103.195190,385.009277 103.353836,383.613983 103.288795,382.451904 
	C103.161804,380.183136 102.999443,377.916321 102.876053,376.022125 
	C99.051979,375.001038 100.528984,385.761292 94.438644,378.689514 
z"/>
<path fill="#000000" opacity="1.000000" stroke="none" 
	d="
M396.346832,369.446869 
	C395.893372,374.850403 397.166687,379.973206 395.376465,385.334076 
	C390.918335,382.756409 393.945465,378.420258 391.823578,375.598572 
	C389.003784,376.562042 389.614380,381.313843 386.482727,381.270264 
	C383.170197,381.224213 383.788239,376.568390 380.756104,375.194153 
	C378.738159,378.086334 381.491913,382.524841 377.376343,385.512817 
	C374.722717,378.321198 376.909790,371.726013 376.832245,364.327484 
	C382.312042,366.819977 382.488434,372.539490 386.367340,375.278534 
	C389.155304,373.534637 389.849304,370.493317 391.329437,368.016235 
	C392.148224,366.645935 392.501282,364.501221 394.641113,364.885742 
	C396.938446,365.298584 396.126465,367.467255 396.346832,369.446869 
z"/>
<path fill="#000000" opacity="1.000000" stroke="none" 
	d="
M183.552795,375.627686 
	C183.089783,376.910370 182.737183,377.839691 182.350296,378.754547 
	C180.187225,383.869507 176.447617,386.509338 171.677368,385.948151 
	C167.054993,385.404327 164.206696,382.454285 162.920685,378.188263 
	C161.425339,373.227814 163.418121,368.203003 167.539734,365.550934 
	C174.375107,361.152710 182.127563,365.829285 183.552795,375.627686 
M166.745758,373.266571 
	C165.545685,377.374817 167.232178,380.403900 171.079697,381.282684 
	C174.771500,382.125916 177.962982,380.377716 179.000473,376.353760 
	C179.909363,372.828583 178.188858,369.983368 175.165756,368.676819 
	C171.428421,367.061584 168.413666,368.502716 166.745758,373.266571 
z"/>
<path fill="#000000" opacity="1.000000" stroke="none" 
	d="
M154.083832,385.021484 
	C148.831390,382.825562 147.860306,376.822754 143.282379,373.940155 
	C140.703781,377.362396 143.972763,382.154724 139.232117,386.104675 
	C137.738678,378.395203 138.876389,371.713074 139.034286,364.302582 
	C145.330612,366.317902 145.554581,373.389435 150.783188,375.481934 
	C152.612457,372.864990 151.358017,369.936401 151.835922,367.271606 
	C152.049759,366.079224 152.257843,364.894287 153.700027,364.698212 
	C154.929047,364.531097 155.742599,365.445587 155.694778,366.435089 
	C155.396301,372.611298 157.064728,378.926910 154.083832,385.021484 
z"/>
<path fill="#000000" opacity="1.000000" stroke="none" 
	d="
M416.219818,358.977325 
	C413.547058,362.209839 414.163757,365.076752 415.522919,368.595886 
	C417.565399,373.884216 420.796875,378.801971 421.904572,384.999420 
	C417.304596,385.160767 416.867310,379.893158 412.370178,379.949310 
	C407.806030,380.006317 407.310547,384.553772 404.477386,385.610321 
	C402.616486,384.082489 403.395386,382.984833 403.798309,381.954285 
	C406.391113,375.322449 409.930328,369.070404 410.892639,361.791534 
	C411.159027,359.776733 412.732483,356.881958 416.219818,358.977325 
z"/>
<path fill="#000000" opacity="1.000000" stroke="none" 
	d="
M229.808243,364.511475 
	C238.999023,363.352325 244.178650,372.604706 240.900024,379.519623 
	C238.536530,384.504364 229.991562,387.523926 225.340973,385.001068 
	C223.679413,384.099701 223.804474,382.564880 223.782623,381.106567 
	C223.727875,377.452972 224.006012,373.777130 223.695801,370.149078 
	C223.317444,365.724121 225.127747,363.989227 229.808243,364.511475 
M235.600006,380.157745 
	C237.620895,378.065094 238.274734,375.571106 237.567719,372.786713 
	C236.602325,368.984863 230.979706,366.557312 228.411346,368.769531 
	C227.350388,369.683380 226.633163,379.003754 227.827530,380.390564 
	C229.998520,382.911377 232.567215,381.884705 235.600006,380.157745 
z"/>
<path fill="#000000" opacity="1.000000" stroke="none" 
	d="
M189.990265,372.877838 
	C188.986389,367.589050 190.965683,364.278198 195.379700,364.078796 
	C198.652863,363.931000 202.275726,364.068420 203.284210,368.559631 
	C200.189713,370.253113 196.992523,366.033630 194.596970,369.709747 
	C195.008255,372.561035 197.442642,372.985107 199.580383,373.791260 
	C202.912018,375.047699 204.963913,377.232483 204.095474,381.018555 
	C203.143509,385.168793 199.702881,385.723389 196.283142,385.663147 
	C192.847443,385.602661 189.704514,384.713593 189.475037,380.421051 
	C191.454758,378.611176 192.689240,380.379089 194.101379,380.962433 
	C195.788986,381.659576 197.588364,381.890015 198.393463,379.974182 
	C199.160309,378.149445 197.469284,377.318878 196.088104,376.746521 
	C193.931900,375.853027 191.710388,375.120239 189.990265,372.877838 
z"/>
<path fill="#000000" opacity="1.000000" stroke="none" 
	d="
M131.583923,381.620789 
	C131.993622,382.951385 132.359360,383.986694 131.391769,384.728271 
	C130.634369,385.308777 129.844864,384.946564 129.138992,384.416229 
	C122.329361,379.300232 122.331268,379.305939 115.468193,384.960541 
	C115.275139,385.119598 114.836563,384.980621 114.379395,384.980621 
	C112.769821,383.844757 113.612694,382.343597 114.139992,381.057434 
	C116.030365,376.446625 118.025749,371.878479 120.018150,367.310211 
	C120.546021,366.099915 121.073471,364.697418 122.651306,364.622986 
	C124.523323,364.534668 125.059982,366.091827 125.646469,367.480927 
	C127.584419,372.070984 129.519928,376.662048 131.583923,381.620789 
z"/>
<path fill="#000000" opacity="1.000000" stroke="none" 
	d="
M327.535339,381.906067 
	C327.546967,376.098083 327.546967,370.702484 327.546967,364.159790 
	C333.846191,367.128937 335.300629,373.048706 340.393402,376.221069 
	C340.593292,372.805267 340.715088,369.911316 340.956970,367.027466 
	C341.042542,366.006927 341.515045,365.042725 342.788635,365.088959 
	C344.071381,365.135468 344.429840,366.126617 344.436218,367.161407 
	C344.472626,373.059753 344.453888,378.958435 344.453888,385.805054 
	C338.049011,383.522766 337.220276,377.333801 332.725128,374.506836 
	C330.089966,376.779358 331.607178,379.827881 331.064148,382.366211 
	C330.818726,383.513489 330.718597,384.864990 329.188354,384.866669 
	C327.553650,384.868469 327.647827,383.457764 327.535339,381.906067 
z"/>
<path fill="#000000" opacity="1.000000" stroke="none" 
	d="
M307.478577,381.274933 
	C305.782501,382.496399 305.770996,385.038696 303.416077,384.924194 
	C302.405212,384.547546 301.981537,383.725250 302.312927,382.930389 
	C304.669952,377.277100 307.026123,371.619324 309.589264,366.058258 
	C310.546143,363.982147 312.623230,364.117126 313.476257,365.898834 
	C316.353027,371.907257 318.864380,378.090637 320.900421,384.808044 
	C316.329956,383.240631 313.259827,377.834106 307.478577,381.274933 
z"/>
<path fill="#000000" opacity="1.000000" stroke="none" 
	d="
M367.284180,384.774048 
	C361.749817,376.713318 356.737305,380.523010 352.333527,385.366943 
	C350.566010,383.873993 351.079895,382.741058 351.523468,381.682190 
	C353.577087,376.780212 355.569489,371.848328 357.792816,367.023499 
	C358.844421,364.741394 360.710999,363.112396 362.361969,366.437775 
	C364.872284,371.494080 367.024597,376.733490 369.181458,381.956055 
	C369.716431,383.251404 370.298523,385.111115 367.284180,384.774048 
z"/>
<path fill="#000000" opacity="1.000000" stroke="none" 
	d="
M312.637207,319.583282 
	C312.629639,322.502411 310.289398,322.286865 308.738708,322.840027 
	C299.623627,326.091278 290.150665,327.846405 280.616333,329.320831 
	C276.016357,330.032227 271.316132,330.521210 268.203735,334.730713 
	C267.473022,335.718964 266.373474,336.376953 265.245758,335.251923 
	C264.193573,334.202209 264.719360,333.055328 265.504333,332.129333 
	C267.367645,329.931274 269.598755,328.257935 272.465302,327.542877 
	C285.171753,324.373322 298.367554,323.294495 310.727295,318.611328 
	C311.167877,318.444397 311.893036,319.028473 312.637207,319.583282 
z"/>
<path fill="#000000" opacity="1.000000" stroke="none" 
	d="
M262.022552,364.779053 
	C263.586639,366.704163 262.458130,367.472321 261.030273,367.760620 
	C259.581146,368.053284 258.057404,367.974335 256.566681,368.063873 
	C254.769989,368.171753 252.519073,367.854828 252.487839,370.514465 
	C252.456070,373.218323 254.737381,372.810608 256.515900,373.005951 
	C258.210266,373.192017 260.269104,372.448883 261.398071,374.868439 
	C260.368073,377.236450 258.345398,376.731415 256.401733,376.524231 
	C254.476379,376.319031 252.566559,376.305389 252.405823,378.949249 
	C252.246262,381.573944 254.087509,381.747467 256.055328,381.861938 
	C258.401733,381.998474 261.047424,381.293610 263.297638,384.401886 
	C258.747162,386.018524 254.544296,385.459686 250.434525,384.947571 
	C248.542862,384.711884 248.724945,382.733826 248.711411,381.266113 
	C248.674591,377.274536 248.881821,373.273224 248.669388,369.292999 
	C248.486267,365.861664 249.925507,364.483612 253.235153,364.369019 
	C256.055786,364.271362 258.866455,363.787292 262.022552,364.779053 
z"/>
<path fill="#000000" opacity="1.000000" stroke="none" 
	d="
M208.459656,324.708435 
	C199.628464,322.197418 199.628464,322.197418 198.141830,319.586273 
	C199.322769,318.022308 200.821060,318.632324 202.188538,319.122864 
	C212.906052,322.967346 224.150497,324.498810 235.238297,326.718842 
	C238.393753,327.350677 241.357880,328.461212 243.661072,330.784973 
	C245.006027,332.141937 246.735428,333.599335 244.355743,336.379211 
	C240.952942,333.756226 238.016251,330.330688 233.301788,329.726685 
	C227.208389,328.945984 221.191437,327.553833 215.153122,326.366211 
	C213.033020,325.949249 210.947067,325.358612 208.459656,324.708435 
z"/>
<path fill="#000000" opacity="1.000000" stroke="none" 
	d="
M292.078339,364.548584 
	C296.798035,365.317719 298.888550,367.989929 298.624512,372.227356 
	C298.373047,376.262939 295.895416,378.954742 291.925079,378.850830 
	C287.285858,378.729431 287.485687,382.939819 285.574646,385.076599 
	C282.656769,384.573547 283.141296,382.541931 283.205750,380.788116 
	C283.321289,377.643066 283.614655,374.501617 283.644348,371.356873 
	C283.716034,363.770782 283.789734,363.669525 292.078339,364.548584 
M290.475983,368.131805 
	C286.960846,368.124542 287.192963,370.588379 287.336487,372.946442 
	C287.443512,374.705475 288.423706,375.642792 290.203674,375.585602 
	C292.345428,375.516724 294.155609,374.722626 294.644104,372.469086 
	C295.214508,369.837830 293.822845,368.471039 290.475983,368.131805 
z"/>
<path fill="#000000" opacity="1.000000" stroke="none" 
	d="
M134.554962,394.963745 
	C139.467316,394.507690 138.746613,397.157318 137.945618,400.114075 
	C136.006256,400.114075 134.213150,400.114075 132.018860,400.114075 
	C132.282288,398.077240 129.399200,395.117767 134.554962,394.963745 
z"/>
<path fill="#000000" opacity="1.000000" stroke="none" 
	d="
M118.503265,394.969604 
	C120.661057,394.119476 122.457863,394.130341 123.463219,396.127350 
	C123.995544,397.184723 123.905327,398.449615 123.070366,399.424225 
	C122.180733,400.462585 120.837616,400.243866 119.794807,400.017303 
	C116.776901,399.361603 117.859962,397.148834 118.503265,394.969604 
z"/>
<path fill="#000000" opacity="1.000000" stroke="none" 
	d="
M168.044449,394.556000 
	C170.943726,394.907288 171.101212,396.598907 170.650803,398.604614 
	C170.344696,399.967682 169.390152,400.448273 168.075500,400.431824 
	C166.477829,400.411865 165.636490,399.455719 165.295578,398.055725 
	C164.811844,396.069244 165.593430,394.836823 168.044449,394.556000 
z"/>
<path fill="#000000" opacity="1.000000" stroke="none" 
	d="
M194.334351,395.545471 
	C195.588745,397.360901 196.031647,398.934418 194.051941,400.028076 
	C192.650070,400.802551 191.128082,400.670837 189.888260,399.539337 
	C188.771912,398.520508 188.499374,397.195251 189.362396,395.948181 
	C190.642532,394.098389 192.330338,394.078979 194.334351,395.545471 
z"/>
<path fill="#000000" opacity="1.000000" stroke="none" 
	d="
M296.553711,394.648743 
	C298.858612,395.944061 299.023499,397.629608 297.846039,399.386566 
	C296.999207,400.650146 295.558563,400.604156 294.233521,400.179901 
	C292.944336,399.767181 292.484619,398.630249 292.508270,397.433594 
	C292.555786,395.031372 294.144440,394.425171 296.553711,394.648743 
z"/>
<path fill="#000000" opacity="1.000000" stroke="none" 
	d="
M155.159821,396.419617 
	C155.034271,399.311859 153.944229,400.890625 151.138000,400.110321 
	C149.072327,399.535919 148.691254,397.563873 149.523682,396.171082 
	C151.069092,393.585297 153.195297,394.103333 155.159821,396.419617 
z"/>
<path fill="#000000" opacity="1.000000" stroke="none" 
	d="
M263.918884,398.064880 
	C263.672913,395.752869 264.199310,394.484039 266.480682,394.639526 
	C267.909302,394.736877 269.037201,395.188080 269.418823,396.683319 
	C269.720673,397.865753 269.571167,399.172119 268.443054,399.679871 
	C266.772186,400.431854 264.950043,400.723846 263.918884,398.064880 
z"/>
<path fill="#000000" opacity="1.000000" stroke="none" 
	d="
M184.072891,394.700317 
	C186.368179,395.157593 187.461609,396.107574 186.554596,398.201813 
	C185.979553,399.529541 184.964523,400.277313 183.461868,400.138458 
	C181.979858,400.001556 180.967010,399.125549 180.736267,397.720398 
	C180.378418,395.541290 181.867279,394.897827 184.072891,394.700317 
z"/>
<path fill="#000000" opacity="1.000000" stroke="none" 
	d="
M200.998764,400.361237 
	C197.926346,399.941040 196.786545,398.367523 197.932266,395.816071 
	C198.690918,394.126587 200.629333,393.953888 201.692642,395.142365 
	C203.060654,396.671448 204.577484,398.820831 200.998764,400.361237 
z"/>
<path fill="#000000" opacity="1.000000" stroke="none" 
	d="
M360.922394,399.246429 
	C360.805511,397.599213 360.805511,396.311279 360.805511,395.075897 
	C362.922882,394.414368 364.583557,394.317322 365.647644,395.950165 
	C366.298859,396.949524 366.165466,398.356171 365.435699,399.270020 
	C364.201660,400.815186 362.592651,400.589294 360.922394,399.246429 
z"/>
<path fill="#000000" opacity="1.000000" stroke="none" 
	d="
M312.926453,395.909729 
	C314.901611,394.390625 316.814301,393.466583 317.557434,396.553101 
	C317.910431,398.019257 318.344818,400.145050 315.807068,400.398468 
	C312.567200,400.721985 312.366211,398.632263 312.926453,395.909729 
z"/>
<path fill="#000000" opacity="1.000000" stroke="none" 
	d="
M236.646118,399.908020 
	C233.543716,399.803955 233.173859,397.860718 233.691422,395.785004 
	C234.119446,394.068451 235.895370,394.200378 236.990631,394.819061 
	C239.648193,396.320251 237.881821,398.099243 236.646118,399.908020 
z"/>
<path fill="#000000" opacity="1.000000" stroke="none" 
	d="
M369.386078,398.877563 
	C369.344574,396.479126 369.258362,394.076965 372.301331,394.652649 
	C374.254578,395.022186 374.091919,396.973663 373.647827,398.375244 
	C372.870514,400.828430 371.277130,400.760101 369.386078,398.877563 
z"/>
<path fill="#000000" opacity="1.000000" stroke="none" 
	d="
M215.289169,400.129761 
	C212.967606,398.440552 212.307129,396.571289 214.374161,394.714661 
	C215.313904,393.870636 216.984192,394.273071 217.356659,395.358643 
	C217.980164,397.175964 219.202286,399.638123 215.289169,400.129761 
z"/>
<path fill="#000000" opacity="1.000000" stroke="none" 
	d="
M325.354156,397.753906 
	C324.825043,402.756683 322.091553,398.897797 320.495972,399.748108 
	C319.989136,397.330994 320.389374,395.536255 322.460541,394.994263 
	C324.122711,394.559296 325.194031,395.680817 325.354156,397.753906 
z"/>
<path fill="#000000" opacity="1.000000" stroke="none" 
	d="
M161.934143,395.306580 
	C162.510620,397.200562 162.556152,398.775299 161.256897,400.180573 
	C158.692947,400.285400 156.902298,399.029480 157.286377,396.546753 
	C157.643600,394.237610 159.855942,394.558472 161.934143,395.306580 
z"/>
<path fill="#000000" opacity="1.000000" stroke="none" 
	d="
M142.405136,394.964539 
	C146.182480,394.852295 146.414932,397.084564 146.306427,400.005798 
	C144.460861,399.887756 142.894028,399.787506 141.365173,399.689728 
	C140.421951,397.866119 140.916489,396.431763 142.405136,394.964539 
z"/>
<path fill="#000000" opacity="1.000000" stroke="none" 
	d="
M381.953186,396.284637 
	C382.640198,399.449890 381.279816,400.431915 378.769165,399.944214 
	C377.091736,399.618347 376.777435,398.094299 377.229065,396.786987 
	C378.152710,394.113556 379.867981,394.172363 381.953186,396.284637 
z"/>
<path fill="#000000" opacity="1.000000" stroke="none" 
	d="
M340.328064,398.645660 
	C339.773315,395.679321 340.883972,394.472870 343.452606,394.903564 
	C345.476410,395.242889 345.569885,397.004944 345.069336,398.345978 
	C344.079285,400.998260 342.246307,400.339203 340.328064,398.645660 
z"/>
<path fill="#000000" opacity="1.000000" stroke="none" 
	d="
M173.805435,398.485107 
	C173.323029,395.522675 174.570663,394.370056 177.037949,394.849457 
	C179.031662,395.236847 178.959579,396.856720 178.320908,398.310181 
	C177.210144,400.838135 175.652924,400.849060 173.805435,398.485107 
z"/>
<path fill="#000000" opacity="1.000000" stroke="none" 
	d="
M385.599304,396.863953 
	C385.648254,394.745605 386.710785,394.149628 388.222687,394.615692 
	C390.021790,395.170166 389.829193,396.894318 389.927673,398.327026 
	C390.026947,399.771576 389.197357,400.398041 387.802368,400.347290 
	C385.690338,400.270416 385.661316,398.727234 385.599304,396.863953 
z"/>
<path fill="#000000" opacity="1.000000" stroke="none" 
	d="
M274.005554,394.736206 
	C276.256195,396.097626 277.090027,397.815796 275.395691,399.667267 
	C274.385284,400.771423 272.793518,400.356964 272.086029,399.028778 
	C271.095032,397.168304 270.584229,395.193970 274.005554,394.736206 
z"/>
<path fill="#000000" opacity="1.000000" stroke="none" 
	d="
M225.665695,398.379700 
	C226.125214,396.481537 226.456894,394.321869 228.571976,394.920410 
	C230.791962,395.548706 230.648972,397.865814 230.647980,400.132019 
	C228.803284,399.915405 226.746933,401.424744 225.665695,398.379700 
z"/>
<path fill="#000000" opacity="1.000000" stroke="none" 
	d="
M352.522919,399.432983 
	C349.547394,400.900177 348.548859,399.478546 348.443359,397.041687 
	C348.370331,395.354370 349.445038,394.600067 351.031860,394.859009 
	C353.806580,395.311829 353.167847,397.282562 352.522919,399.432983 
z"/>
<path fill="#000000" opacity="1.000000" stroke="none" 
	d="
M209.837555,395.334381 
	C210.238678,397.453217 211.171051,399.774841 208.245743,400.195435 
	C206.609573,400.430664 206.103989,398.892670 206.106201,397.527985 
	C206.109985,395.185547 207.296921,394.278198 209.837555,395.334381 
z"/>
<path fill="#000000" opacity="1.000000" stroke="none" 
	d="
M301.817017,399.655701 
	C300.323517,397.773193 299.794769,395.986603 302.076874,394.998840 
	C303.643158,394.320892 304.988281,395.121704 305.194000,397.024872 
	C305.437103,399.274078 304.728851,400.594543 301.817017,399.655701 
z"/>
<path fill="#000000" opacity="1.000000" stroke="none" 
	d="
M245.924164,397.513794 
	C245.915054,394.786316 247.409805,394.263367 249.178741,395.152649 
	C250.857697,395.996704 250.616013,397.857300 249.651840,399.013947 
	C247.831100,401.198120 246.933334,399.236298 245.924164,397.513794 
z"/>
<path fill="#000000" opacity="1.000000" stroke="none" 
	d="
M249.985992,233.011047 
	C254.741928,233.936707 253.999176,237.791321 253.828217,240.925171 
	C253.548340,246.055725 252.906281,251.182068 252.106293,256.261230 
	C251.777786,258.346863 252.009628,259.799500 253.800552,260.963715 
	C255.323685,261.953888 256.654755,261.488647 257.950989,260.578644 
	C259.765778,259.304596 258.947662,257.730438 258.529907,256.099487 
	C257.062225,250.369476 257.782501,244.525040 257.879822,238.727310 
	C257.906799,237.119659 258.478638,235.391571 261.146820,235.177780 
	C262.649750,239.856522 260.824249,244.628433 261.303314,249.308273 
	C261.606934,252.274277 261.414703,255.024200 264.008026,257.447174 
	C266.426941,259.707184 265.643921,262.290161 262.577972,263.846924 
	C261.566467,264.360504 260.281006,264.428925 259.587036,265.984039 
	C261.111633,268.859772 263.741943,270.142639 267.024261,270.548584 
	C269.503998,270.855225 271.122101,272.020142 268.963409,274.416992 
	C260.317810,284.016388 250.396027,285.920715 241.112808,272.423767 
	C244.996552,270.373810 248.863708,268.332611 252.754288,266.279053 
	C252.254715,263.962982 250.271072,264.381226 248.787476,263.938202 
	C245.997650,263.105133 244.517044,260.848389 246.212921,258.667786 
	C252.083786,251.119110 249.495667,242.499191 249.988541,234.264984 
	C249.998459,234.099121 249.991943,233.932281 250.012421,233.366745 
	C250.031754,232.967590 250.001572,232.996979 249.985992,233.011047 
z"/>
</svg>