<svg version="1.1" id="Layer_1" xmlns="http://www.w3.org/2000/svg" xmlns:xlink="http://www.w3.org/1999/xlink" x="0px" y="0px"
	 width="100%" viewBox="0 0 350 308" enable-background="new 0 0 350 308" xml:space="preserve">
<path fill="none" opacity="1.000000" stroke="#000000" stroke-linecap="round" stroke-linejoin="round" stroke-width="3.000000"
	d="
M129.000000,133.000000 
	C129.666672,133.833328 130.857407,134.640900 130.899887,135.504929 
	C131.018402,137.914703 131.832611,140.031570 133.027954,141.982880 
	C136.237610,147.222412 136.939423,153.020966 138.295837,158.873489 
	C139.774231,165.252380 143.401276,171.874451 148.438446,177.059799 
	C149.594025,178.249374 150.458954,179.549026 150.197220,182.020889 
	C148.407410,198.923630 142.663956,203.720062 126.962379,208.885651 
	C116.996994,212.164139 106.546143,213.950256 96.531769,217.100983 
	C85.080444,220.703827 77.040070,227.976379 75.000000,240.500000 
"/>
<path fill="none" opacity="1.000000" stroke="#000000" stroke-linecap="round" stroke-linejoin="round" stroke-width="3.000000"
	d="
M195.500000,181.500000 
	C196.676193,183.688431 196.602310,186.150742 197.119934,188.473267 
	C199.450241,198.929321 206.610168,204.719635 216.476654,208.068771 
	C227.468170,211.799774 238.993866,213.439423 249.984909,217.046005 
	C261.445465,220.806656 269.407928,228.023956 271.500000,240.500000 
"/>
<path fill="none" opacity="1.000000" stroke="#000000" stroke-linecap="round" stroke-linejoin="round" stroke-width="3.000000"
	d="
M137.500000,160.000000 
	C129.351578,162.375412 128.961060,169.465790 128.090820,176.012070 
	C127.590065,179.778839 127.923874,183.668594 128.020660,187.499481 
	C128.124680,191.616669 129.932068,194.849701 133.503403,196.994324 
	C136.555588,198.827164 139.230255,197.726456 141.993546,193.495789 
	C143.475311,191.227158 144.017242,188.736176 144.048325,186.000549 
	C144.097580,181.667618 143.476547,177.300385 144.500000,173.000000 
"/>
<path fill="none" opacity="1.000000" stroke="#000000" stroke-linecap="round" stroke-linejoin="round" stroke-width="3.000000"
	d="
M210.500000,146.500000 
	C209.436844,142.059250 210.244354,137.484650 211.715210,133.581085 
	C213.970352,127.596069 212.550964,122.555740 208.345032,119.193871 
	C202.954559,114.885185 199.157028,108.744949 192.957611,105.583115 
	C187.198151,102.645668 182.803253,97.877449 177.097900,94.817459 
	C173.384613,92.825890 170.696762,93.018852 166.944504,94.342697 
	C160.724106,96.537323 154.894363,99.321602 149.521774,103.031525 
	C140.739044,109.096252 135.448685,117.826241 131.500000,127.500000 
"/>
<path fill="none" opacity="1.000000" stroke="#000000" stroke-linecap="round" stroke-linejoin="round" stroke-width="3.000000"
	d="
M210.500000,167.500000 
	C207.590302,170.314240 207.962646,173.944336 207.994461,177.500046 
	C208.021317,180.499817 207.835693,183.512650 208.065399,186.494965 
	C208.190994,188.125671 208.814621,189.780365 210.997498,190.022552 
	C212.975555,190.241989 213.863983,188.141693 213.846069,187.504333 
	C213.656113,180.746414 215.340424,173.665604 211.000000,167.500000 
"/>
<path fill="none" opacity="1.000000" stroke="#000000" stroke-linecap="round" stroke-linejoin="round" stroke-width="3.000000"
	d="
M173.000000,95.500000 
	C170.535904,97.697456 167.484528,98.778038 164.502365,100.005737 
	C149.889252,106.021645 139.518005,116.022156 135.000000,131.500000 
"/>
<path fill="none" opacity="1.000000" stroke="#000000" stroke-linecap="round" stroke-linejoin="round" stroke-width="3.000000"
	d="
M229.000000,219.000000 
	C219.870911,222.843445 210.248428,224.642883 200.504257,226.029938 
	C194.179428,226.930267 187.841354,227.995972 183.500000,233.500000 
"/>
<path fill="none" opacity="1.000000" stroke="#000000" stroke-linecap="round" stroke-linejoin="round" stroke-width="3.000000"
	d="
M151.000000,180.500000 
	C153.500000,182.666672 155.911987,184.946014 158.515701,186.979904 
	C168.230957,194.569000 178.002670,194.347488 188.062271,187.086273 
	C194.000534,182.799911 197.636932,176.638855 202.500000,171.500000 
"/>
<path fill="none" opacity="1.000000" stroke="#000000" stroke-linecap="round" stroke-linejoin="round" stroke-width="3.000000"
	d="
M116.500000,219.500000 
	C121.796112,219.397598 126.426819,222.091888 131.462112,223.175995 
	C138.119705,224.609375 144.833542,225.665680 151.500748,226.996277 
	C155.674988,227.829361 159.662933,228.964859 162.000000,233.000000 
"/>
<path fill="none" opacity="1.000000" stroke="#000000" stroke-linecap="round" stroke-linejoin="round" stroke-width="3.000000"
	d="
M211.500000,161.000000 
	C216.537796,163.877090 217.837082,168.785355 218.488358,174.001450 
	C219.218918,179.852631 219.813110,185.737122 217.970627,191.490585 
	C216.820251,195.082809 214.315262,197.723434 210.495056,197.877182 
	C207.404160,198.001526 203.114944,192.802460 203.110428,188.499878 
	C203.100113,178.682022 200.946167,168.319534 208.724258,159.976013 
	C209.173019,159.494629 209.609940,158.558090 209.446457,158.016144 
	C206.635712,148.698593 214.520004,143.006653 216.987396,135.495865 
	C217.086227,135.195007 217.000000,134.833328 217.000000,134.242874 
	C216.419189,132.462616 214.235382,132.990051 213.000000,132.000000 
"/>
<path fill="none" opacity="1.000000" stroke="#000000" stroke-linecap="round" stroke-linejoin="round" stroke-width="3.000000"
	d="
M204.000000,276.000000 
	C205.833328,276.000000 207.675003,276.111359 209.498138,275.975006 
	C212.562210,275.745911 214.988647,274.733276 215.016647,271.000122 
	C215.042725,267.523926 213.152390,265.596344 209.988739,265.067383 
	C207.868927,264.712952 205.641861,265.000000 203.000000,265.000000 
	C203.000000,271.490753 203.000000,277.495361 203.000000,283.500000 
"/>
<path fill="none" opacity="1.000000" stroke="#000000" stroke-linecap="round" stroke-linejoin="round" stroke-width="3.000000"
	d="
M146.500000,135.500000 
	C152.309326,140.354660 157.397705,140.127960 163.500000,136.000000 
	C158.570892,129.067505 149.785858,128.565506 146.000000,135.000000 
"/>
<path fill="none" opacity="1.000000" stroke="#000000" stroke-linecap="round" stroke-linejoin="round" stroke-width="3.000000"
	d="
M200.500000,132.500000 
	C193.060730,128.937714 187.806427,130.019485 183.500000,136.000000 
	C189.914978,140.325851 193.823029,140.102539 201.000000,135.000000 
"/>
<path fill="none" opacity="1.000000" stroke="#000000" stroke-linecap="round" stroke-linejoin="round" stroke-width="3.000000"
	d="
M187.000000,67.000000 
	C183.314835,63.425850 178.281128,63.878624 173.992401,63.746475 
	C166.606339,63.518890 158.981110,63.292603 151.951279,66.905182 
	C150.000153,67.907837 148.825836,68.786041 149.000000,71.000000 
"/>
<path fill="none" opacity="1.000000" stroke="#000000" stroke-linecap="round" stroke-linejoin="round" stroke-width="3.000000"
	d="
M138.500000,175.500000 
	C139.543808,174.646194 139.110336,172.694046 138.946030,172.620407 
	C136.887131,171.697540 139.403214,167.800003 136.001816,168.027084 
	C132.783844,168.241898 133.413696,171.495865 133.208862,173.027924 
	C132.617783,177.448898 132.946823,182.000916 133.023865,186.499588 
	C133.059021,188.551605 133.999359,190.167099 136.278900,191.191879 
	C140.955521,186.791107 138.273010,181.054596 139.000000,176.000000 
"/>
<path fill="none" opacity="1.000000" stroke="#000000" stroke-linecap="round" stroke-linejoin="round" stroke-width="2.000000"
	d="
M129.000000,126.500000 
	C124.919945,128.133698 124.034729,131.369431 125.579514,134.965851 
	C127.917603,140.409149 130.829727,145.578796 132.078705,151.483353 
	C132.566696,153.790375 135.037827,154.536041 137.000000,155.500000 
"/>
<path fill="none" opacity="1.000000" stroke="#000000" stroke-linecap="round" stroke-linejoin="round" stroke-width="3.000000"
	d="
M197.000000,57.500000 
	C194.458054,53.043446 190.407135,55.377857 187.570679,56.234127 
	C183.802979,57.371525 181.564087,56.170242 178.973679,54.031887 
	C174.530533,50.364105 172.644775,50.665634 166.478806,55.516674 
	C162.419281,53.184635 158.311279,51.551407 154.000000,55.000000 
"/>
<path fill="none" opacity="1.000000" stroke="#000000" stroke-linecap="round" stroke-linejoin="round" stroke-width="3.000000"
	d="
M207.500000,117.500000 
	C207.675339,114.663773 207.602646,112.246658 205.097794,109.895798 
	C200.217621,105.315666 195.559052,100.565468 189.503876,97.492371 
	C187.313126,96.380531 185.166672,95.740219 183.000000,97.500000 
"/>
<path fill="none" opacity="1.000000" stroke="#000000" stroke-linecap="round" stroke-linejoin="round" stroke-width="3.000000"
	d="
M180.500000,265.000000 
	C176.825760,265.000000 173.151520,265.000000 169.436218,265.000000 
	C169.052414,266.639832 168.657135,267.806549 168.522827,269.002563 
	C168.154404,272.283752 168.826736,274.636261 173.006073,274.042755 
	C174.803162,273.787537 176.666672,274.000000 178.500000,274.000000 
"/>
<path fill="none" opacity="1.000000" stroke="#000000" stroke-linecap="round" stroke-linejoin="round" stroke-width="3.000000"
	d="
M120.000000,267.000000 
	C114.934364,263.771332 113.073586,264.025085 108.989220,268.511841 
	C108.932831,272.588409 112.419762,272.865845 115.014221,273.966461 
	C117.785545,275.142151 121.926865,275.067566 119.981750,279.992798 
	C118.734955,283.149811 114.846939,283.956543 110.996834,282.006256 
	C109.932175,281.466919 108.644638,281.150970 109.000000,279.500000 
"/>
<path fill="none" opacity="1.000000" stroke="#000000" stroke-linecap="round" stroke-linejoin="round" stroke-width="3.000000"
	d="
M205.500000,128.500000 
	C196.310837,122.374191 187.842300,125.616501 179.500000,130.500000 
"/>
<path fill="none" opacity="1.000000" stroke="#000000" stroke-linecap="round" stroke-linejoin="round" stroke-width="3.000000"
	d="
M186.000000,47.000000 
	C185.811554,44.570221 186.191727,42.315403 187.999023,40.500145 
	C186.999222,38.333687 185.629883,36.249359 185.121811,33.972816 
	C184.743454,32.277473 182.488647,30.157110 185.032410,28.551346 
	C187.405350,27.053415 190.154953,25.769361 192.978302,27.047920 
	C198.701385,29.639616 201.236786,34.665016 202.496902,40.500668 
	C203.393814,44.654366 203.126984,48.933544 204.881149,53.050636 
	C207.148224,58.371483 206.733429,58.615639 200.500000,61.500000 
"/>
<path fill="none" opacity="1.000000" stroke="#000000" stroke-linecap="round" stroke-linejoin="round" stroke-width="2.000000"
	d="
M218.500000,127.000000 
	C222.834152,129.027542 221.924500,132.893143 220.864761,135.953171 
	C219.017227,141.288086 216.114807,146.249969 214.097733,151.537292 
	C213.172607,153.962250 211.551224,154.542053 209.500000,155.000000 
"/>
<path fill="none" opacity="1.000000" stroke="#000000" stroke-linecap="round" stroke-linejoin="round" stroke-width="2.000000"
	d="
M184.000000,172.499985 
	C182.500000,171.333328 181.043060,170.104156 179.480820,169.027817 
	C178.760010,168.531204 177.460999,167.804688 177.060883,168.086456 
	C174.605988,169.815430 172.751892,169.963837 169.853699,168.246948 
	C167.902710,167.091187 164.973770,169.832520 163.706467,171.644409 
	C162.616470,173.202835 163.387939,175.675400 165.956863,177.078964 
	C172.253021,180.518875 180.521439,180.195053 185.000000,172.000000 
"/>
<path fill="none" opacity="1.000000" stroke="#000000" stroke-linecap="round" stroke-linejoin="round" stroke-width="3.000000"
	d="
M166.000000,129.500000 
	C158.322388,125.507080 150.599442,122.579697 142.500000,128.500000 
"/>
<path fill="none" opacity="1.000000" stroke="#000000" stroke-linecap="round" stroke-linejoin="round" stroke-width="3.000000"
	d="
M169.500000,133.500000 
	C170.884888,140.911438 169.511505,148.197495 168.500000,155.500000 
"/>
<path fill="none" opacity="1.000000" stroke="#000000" stroke-linecap="round" stroke-linejoin="round" stroke-width="3.000000"
	d="
M169.000000,274.500000 
	C167.941986,275.721924 168.685638,277.168854 168.516235,278.502075 
	C168.087555,281.875671 169.393753,283.519379 173.003601,283.026398 
	C175.482529,282.687897 178.054672,283.486786 180.500000,282.500000 
"/>
<path fill="none" opacity="1.000000" stroke="#000000" stroke-linecap="round" stroke-linejoin="round" stroke-width="3.000000"
	d="
M72.000000,264.500000 
	C72.000000,270.833344 72.000000,277.166656 72.000000,283.500000 
"/>
<path fill="none" opacity="1.000000" stroke="#000000" stroke-linecap="round" stroke-linejoin="round" stroke-width="3.000000"
	d="
M178.000000,136.000000 
	C178.000000,142.500000 178.000000,149.000000 178.000000,155.500000 
"/>
<path fill="none" opacity="1.000000" stroke="#000000" stroke-linecap="round" stroke-linejoin="round" stroke-width="3.000000"
	d="
M261.000000,264.500000 
	C260.458252,269.820312 262.147247,275.280029 260.000000,280.500000 
"/>
<path fill="none" opacity="1.000000" stroke="#000000" stroke-linecap="round" stroke-linejoin="round" stroke-width="3.000000"
	d="
M247.000000,264.500000 
	C247.000000,269.166656 246.976837,273.833527 247.012329,278.499908 
	C247.025070,280.174866 246.698730,281.896790 247.500000,283.500000 
"/>
<path fill="none" opacity="1.000000" stroke="#000000" stroke-linecap="round" stroke-linejoin="round" stroke-width="3.000000"
	d="
M296.000000,264.500000 
	C296.000000,269.000000 295.969391,273.500305 296.014832,277.999847 
	C296.033417,279.839386 295.656647,281.728180 296.500000,283.500000 
"/>
<path fill="none" opacity="1.000000" stroke="#000000" stroke-linecap="round" stroke-linejoin="round" stroke-width="3.000000"
	d="
M151.000000,33.500000 
	C151.115753,39.252708 156.530701,42.629921 157.500000,48.000000 
"/>
<path fill="none" opacity="1.000000" stroke="#000000" stroke-linecap="round" stroke-linejoin="round" stroke-width="3.000000"
	d="
M58.500000,268.000000 
	C57.440941,273.137878 58.256454,278.336243 58.000000,283.500000 
"/>
<path fill="none" opacity="1.000000" stroke="#000000" stroke-linecap="round" stroke-linejoin="round" stroke-width="3.000000"
	d="
M23.000000,264.500000 
	C23.000000,270.833344 23.000000,277.166656 23.000000,283.500000 
"/>
<path fill="none" opacity="1.000000" stroke="#000000" stroke-linecap="round" stroke-linejoin="round" stroke-width="3.000000"
	d="
M191.500000,26.000000 
	C190.421692,20.610537 187.945297,16.485996 181.848495,15.668999 
	C178.977951,18.929234 177.757568,23.084299 177.558243,27.502626 
	C177.442383,30.070364 176.621933,32.412224 175.398468,34.438705 
	C174.160522,36.489166 174.590347,38.459503 174.500000,40.500000 
"/>
<path fill="none" opacity="1.000000" stroke="#000000" stroke-linecap="round" stroke-linejoin="round" stroke-width="3.000000"
	d="
M7.000000,264.500000 
	C7.000000,270.833344 7.000000,277.166656 7.000000,283.500000 
"/>
<path fill="none" opacity="1.000000" stroke="#000000" stroke-linecap="round" stroke-linejoin="round" stroke-width="3.000000"
	d="
M141.500000,91.000000 
	C141.562454,93.208305 139.731476,94.174706 138.484802,95.485542 
	C136.029129,98.067604 133.535217,100.398392 133.350586,104.493263 
	C133.246704,106.797493 130.447388,108.083725 129.340744,110.424713 
	C126.438934,116.563141 126.550896,124.043388 131.596466,128.387970 
	C137.668625,133.616531 135.629364,140.217667 136.000000,146.500000 
"/>
<path fill="none" opacity="1.000000" stroke="#000000" stroke-linecap="round" stroke-linejoin="round" stroke-width="3.000000"
	d="
M180.000000,36.500000 
	C178.814682,37.216007 179.414444,38.682858 178.914459,39.443794 
	C177.019089,42.328457 177.604935,48.290840 170.920700,45.704998 
	C169.162552,45.024853 166.597321,48.014530 164.000000,46.500000 
"/>
<path fill="none" opacity="1.000000" stroke="#000000" stroke-linecap="round" stroke-linejoin="round" stroke-width="2.000000"
	d="
M248.000000,267.000000 
	C252.985870,271.985870 257.166840,277.605927 261.000000,283.500000 
"/>
<path fill="none" opacity="1.000000" stroke="#000000" stroke-linecap="round" stroke-linejoin="round" stroke-width="2.000000"
	d="
M58.000000,264.500000 
	C61.664158,270.527222 66.069962,275.970123 71.000000,281.000000 
"/>
<path fill="none" opacity="1.000000" stroke="#000000" stroke-linecap="round" stroke-linejoin="round" stroke-width="3.000000"
	d="
M160.500000,172.000000 
	C167.500000,173.325027 174.500000,173.678528 181.500000,172.000000 
"/>
<path fill="none" opacity="1.000000" stroke="#000000" stroke-linecap="round" stroke-linejoin="round" stroke-width="3.000000"
	d="
M212.000000,87.500000 
	C211.666672,86.333336 210.980362,85.140068 211.065903,84.004967 
	C211.326706,80.544174 210.515213,77.987694 207.039398,76.413033 
	C205.382965,75.662628 204.145416,73.987633 202.217377,72.290726 
	C200.501740,78.247849 191.474014,76.131516 191.500000,83.500000 
"/>
<path fill="none" opacity="1.000000" stroke="#000000" stroke-linecap="round" stroke-linejoin="round" stroke-width="2.000000"
	d="
M180.500000,31.500000 
	C181.295761,36.015030 182.531876,40.353916 185.500000,44.000000 
"/>
<path fill="none" opacity="1.000000" stroke="#000000" stroke-linecap="round" stroke-linejoin="round" stroke-width="3.000000"
	d="
M144.000000,42.000000 
	C140.031525,42.882305 138.571106,44.690430 139.542328,47.987534 
	C140.321838,50.633892 141.458542,52.934181 140.689285,56.046780 
	C139.994797,58.856903 144.371811,61.449184 147.490280,60.469067 
	C149.046112,59.980072 150.500000,59.166672 152.000000,58.500004 
"/>
<path fill="none" opacity="1.000000" stroke="#000000" stroke-linecap="round" stroke-linejoin="round" stroke-width="3.000000"
	d="
M184.500000,84.500000 
	C181.171051,86.045853 183.800415,88.212250 184.089798,89.985344 
	C184.363419,91.661919 185.484467,92.736771 187.529526,91.550911 
	C188.350204,91.075020 189.500000,91.166664 190.500000,91.000000 
"/>
<path fill="none" opacity="1.000000" stroke="#000000" stroke-linecap="round" stroke-linejoin="round" stroke-width="3.000000"
	d="
M159.000000,19.500000 
	C157.837219,19.344978 156.806870,19.696692 156.008957,20.508795 
	C151.417999,25.181278 149.054550,31.064432 146.258057,36.883732 
	C143.376373,42.880272 146.164536,46.896847 148.423706,51.928913 
	C152.759796,50.665955 156.426819,47.988434 160.997894,47.895844 
	C164.022858,47.834564 164.496078,44.777111 164.912277,42.484077 
	C165.278717,40.465168 165.403625,38.495258 167.000000,37.000000 
"/>
<path fill="none" opacity="1.000000" stroke="#000000" stroke-linecap="round" stroke-linejoin="round" stroke-width="3.000000"
	d="
M163.500000,79.000000 
	C160.759888,83.690384 156.308929,84.274765 151.500000,84.000000 
"/>
<path fill="none" opacity="1.000000" stroke="#000000" stroke-linecap="round" stroke-linejoin="round" stroke-width="2.000000"
	d="
M180.500000,156.500000 
	C182.166824,157.703674 182.318542,159.244034 181.543350,161.174698 
	C176.833328,161.678177 172.315201,162.634323 167.442841,161.193253 
	C164.637329,160.363464 164.735809,159.484299 165.500000,157.500000 
"/>
<path fill="none" opacity="1.000000" stroke="#000000" stroke-linecap="round" stroke-linejoin="round" stroke-width="4.000000"
	d="
M176.000000,77.000000 
	C173.775314,76.956223 171.645355,77.301437 169.482132,77.939423 
	C166.566833,78.799225 163.969360,78.889168 161.351288,76.141701 
	C159.253799,73.940536 155.932358,72.737640 152.956802,71.614464 
	C151.541534,71.080254 149.649643,70.279686 148.003204,71.504303 
	C143.060486,75.180687 135.005432,75.228561 134.189865,84.331665 
	C134.919250,87.527000 138.916397,88.733040 141.651321,90.222054 
	C145.412033,92.269554 147.565399,87.761368 149.964615,85.463058 
	C152.398193,83.131805 150.345016,81.792862 148.510345,80.485481 
	C147.453293,79.732216 146.500000,78.833336 145.500000,78.000000 
"/>
<path fill="none" opacity="1.000000" stroke="#000000" stroke-linecap="round" stroke-linejoin="round" stroke-width="2.000000"
	d="
M312.500000,283.500000 
	C312.500000,277.828522 312.500000,272.157074 312.500000,266.485596 
	C308.977051,270.173157 307.635773,274.897369 304.480652,278.500305 
	C301.250488,275.344360 300.374908,270.570129 297.000000,267.500000 
"/>
<path fill="none" opacity="1.000000" stroke="#000000" stroke-linecap="round" stroke-linejoin="round" stroke-width="4.000000"
	d="
M164.500000,15.500000 
	C159.638382,17.384476 159.638382,17.384476 161.489227,25.453005 
	C163.742020,26.472511 166.102661,26.614725 168.500000,26.500000 
"/>
<path fill="none" opacity="1.000000" stroke="#000000" stroke-linecap="round" stroke-linejoin="round" stroke-width="3.000000"
	d="
M162.500000,68.000000 
	C168.370789,66.855721 174.239777,65.774719 180.000000,68.500000 
"/>
<path fill="none" opacity="1.000000" stroke="#000000" stroke-linecap="round" stroke-linejoin="round" stroke-width="2.000000"
	d="
M330.500000,265.500000 
	C334.389557,270.956482 335.084167,277.832947 338.500000,283.500000 
"/>
<path fill="none" opacity="1.000000" stroke="#000000" stroke-linecap="round" stroke-linejoin="round" stroke-width="2.000000"
	d="
M221.499969,283.500000 
	C224.014572,277.673004 226.529175,271.846008 229.446777,265.085205 
	C233.307129,271.117493 234.713577,277.643890 237.500000,283.500000 
"/>
<path fill="none" opacity="1.000000" stroke="#000000" stroke-linecap="round" stroke-linejoin="round" stroke-width="3.000000"
	d="
M286.500000,283.500000 
	C283.070404,278.065063 281.700378,271.747467 278.421967,265.311493 
	C274.665558,271.104218 273.500549,277.747894 270.500000,283.500000 
"/>
<path fill="none" opacity="1.000000" stroke="#000000" stroke-linecap="round" stroke-linejoin="round" stroke-width="3.000000"
	d="
M162.500000,70.000000 
	C163.603210,71.559448 165.556473,71.523796 167.031494,71.863106 
	C170.109650,72.571175 170.792953,74.311592 170.500000,77.000000 
"/>
<path fill="none" opacity="1.000000" stroke="#000000" stroke-linecap="round" stroke-linejoin="round" stroke-width="2.000000"
	d="
M33.000004,283.000000 
	C35.368752,277.347839 37.737499,271.695709 40.430752,265.269257 
	C44.755363,270.737366 45.225899,277.743164 49.000000,283.000000 
"/>
<path fill="none" opacity="1.000000" stroke="#000000" stroke-linecap="round" stroke-linejoin="round" stroke-width="3.000000"
	d="
M175.000000,15.000000 
	C175.000000,18.666666 175.000000,22.333334 175.000000,26.000000 
"/>
<path fill="none" opacity="1.000000" stroke="#000000" stroke-linecap="round" stroke-linejoin="round" stroke-width="2.000000"
	d="
M22.000000,268.000000 
	C18.628904,270.606903 18.212965,275.282410 15.251513,278.256409 
	C11.573309,275.638977 11.765256,270.611572 8.000000,268.500000 
"/>
<path fill="none" opacity="1.000000" stroke="#000000" stroke-linecap="round" stroke-linejoin="round" stroke-width="3.000000"
	d="
M170.000000,15.000000 
	C169.998398,17.678205 171.326248,20.026569 171.838699,22.532980 
	C172.109619,23.858080 173.958023,26.962826 169.740982,26.633873 
	C168.285873,23.523554 166.642929,20.011778 165.000000,16.500000 
"/>
<path fill="none" opacity="1.000000" stroke="#000000" stroke-linecap="round" stroke-linejoin="round" stroke-width="3.000000"
	d="
M163.000000,28.000000 
	C165.031006,30.804022 163.626541,33.890533 162.306366,35.870918 
	C160.345154,38.812862 160.856033,41.553024 161.000000,44.500000 
"/>
<path fill="none" opacity="1.000000" stroke="#000000" stroke-linecap="round" stroke-linejoin="round" stroke-width="2.000000"
	d="
M330.000000,266.500000 
	C328.306244,269.862701 326.502686,273.183563 326.000000,277.000000 
"/>
<path fill="none" opacity="1.000000" stroke="#000000" stroke-linecap="round" stroke-linejoin="round" stroke-width="2.000000"
	d="
M209.000000,98.500000 
	C207.962006,99.542191 208.103088,101.546989 208.580902,101.885963 
	C212.411880,104.603828 211.675308,110.131851 215.496979,112.754402 
	C217.490295,114.122284 216.238739,115.873993 216.000000,117.500000 
"/>
<path fill="none" opacity="1.000000" stroke="#000000" stroke-linecap="round" stroke-linejoin="round" stroke-width="3.000000"
	d="
M192.000000,28.500000 
	C190.998962,32.057865 190.719543,35.940464 187.500000,38.500000 
"/>
<path fill="none" opacity="1.000000" stroke="#000000" stroke-linecap="round" stroke-linejoin="round" stroke-width="3.000000"
	d="
M196.000000,33.000000 
	C194.747757,36.000000 193.585907,38.641815 195.763947,42.146687 
	C196.903091,43.979786 196.471588,47.383640 195.500000,50.000000 
"/>
<path fill="none" opacity="1.000000" stroke="#000000" stroke-linecap="round" stroke-linejoin="round" stroke-width="2.000000"
	d="
M138.000000,79.000000 
	C141.167404,81.299110 144.514114,83.383057 147.000000,86.500000 
"/>
<path fill="none" opacity="1.000000" stroke="#000000" stroke-linecap="round" stroke-linejoin="round" stroke-width="3.000000"
	d="
M219.000000,113.500000 
	C220.748444,119.995850 218.691833,125.754356 214.000000,127.500000 
"/>
<path fill="none" opacity="1.000000" stroke="#000000" stroke-linecap="round" stroke-linejoin="round" stroke-width="3.000000"
	d="
M149.000000,73.000000 
	C150.238434,76.965599 154.622299,77.336418 157.000000,80.000000 
"/>
<path fill="none" opacity="1.000000" stroke="#000000" stroke-linecap="round" stroke-linejoin="round" stroke-width="3.000000"
	d="
M194.000000,39.500000 
	C191.212601,41.651768 190.915543,45.121952 189.500000,48.000000 
"/>
<path fill="none" opacity="1.000000" stroke="#000000" stroke-linecap="round" stroke-linejoin="round" stroke-width="3.000000"
	d="
M154.500000,30.500000 
	C155.432465,33.916248 156.763153,37.074825 160.000000,39.000000 
"/>
<path fill="none" opacity="1.000000" stroke="#000000" stroke-linecap="round" stroke-linejoin="round" stroke-width="3.000000"
	d="
M170.000000,27.500000 
	C169.954651,31.035925 171.892822,33.456120 174.500000,35.500000 
"/>
<path fill="none" opacity="1.000000" stroke="#000000" stroke-linecap="round" stroke-linejoin="round" stroke-width="3.000000"
	d="
M177.500000,46.000000 
	C184.287460,47.394073 191.123245,48.530502 197.554138,51.377708 
	C198.728516,51.897655 200.703171,51.109493 202.000000,50.000000 
"/>
<path fill="none" opacity="1.000000" stroke="#000000" stroke-linecap="round" stroke-linejoin="round" stroke-width="3.000000"
	d="
M167.500000,32.500000 
	C167.502335,34.469059 167.173447,36.500507 168.992294,38.009289 
	C171.186096,39.829124 171.176331,42.484646 171.500000,45.000000 
"/>
<path fill="none" opacity="1.000000" stroke="#000000" stroke-linecap="round" stroke-linejoin="round" stroke-width="3.000000"
	d="
M197.750000,58.499996 
	C199.166672,60.666664 200.626129,62.806889 201.986603,65.008278 
	C203.094406,66.800865 203.669952,68.666664 202.000000,70.500000 
"/>
<path fill="none" opacity="1.000000" stroke="#000000" stroke-linecap="round" stroke-linejoin="round" stroke-width="3.000000"
	d="
M185.000000,18.000002 
	C184.166672,20.833336 183.333344,23.666668 182.500000,26.500002 
"/>
<path fill="none" opacity="1.000000" stroke="#000000" stroke-linecap="round" stroke-linejoin="round" stroke-width="2.000000"
	d="
M36.500000,277.000000 
	C39.198013,279.467133 42.216751,276.481873 45.000000,277.500000 
"/>
<path fill="none" opacity="1.000000" stroke="#000000" stroke-linecap="round" stroke-linejoin="round" stroke-width="2.000000"
	d="
M225.500000,277.000000 
	C228.230072,278.922180 231.150955,277.600342 234.000000,277.500000 
"/>
<path fill="none" opacity="1.000000" stroke="#000000" stroke-linecap="round" stroke-linejoin="round" stroke-width="3.000000"
	d="
M274.000000,277.500000 
	C276.833344,278.265472 279.666656,278.322021 282.500000,277.500000 
"/>
<path fill="none" opacity="1.000000" stroke="#000000" stroke-linecap="round" stroke-linejoin="round" stroke-width="3.000000"
	d="
M152.000000,41.500000 
	C150.243362,44.286873 150.841995,46.926540 152.500000,49.500000 
"/>
<path fill="none" opacity="1.000000" stroke="#000000" stroke-linecap="round" stroke-linejoin="round" stroke-width="3.000000"
	d="
M177.000000,78.000000 
	C180.654877,79.643600 184.292892,80.999886 186.984375,76.490677 
	C187.928665,74.908661 189.682877,74.928223 191.026382,74.612122 
	C193.431458,74.046257 194.832016,72.998688 195.000000,70.500000 
"/>
<path fill="none" opacity="1.000000" stroke="#000000" stroke-linecap="round" stroke-linejoin="round" stroke-width="3.000000"
	d="
M185.000000,71.000000 
	C182.947220,73.648880 179.159012,73.521095 177.000000,76.000000 
"/>
<path fill="none" opacity="1.000000" stroke="#000000" stroke-linecap="round" stroke-linejoin="round" stroke-width="3.000000"
	d="
M201.500000,73.000000 
	C198.226944,70.055855 194.289780,69.273071 190.005661,68.929359 
	C181.975006,68.285049 181.591629,68.249580 176.482513,70.967110 
	C174.092209,72.238503 173.691513,74.147659 174.000000,76.500000 
"/>
<path fill="none" opacity="1.000000" stroke="#000000" stroke-linecap="round" stroke-linejoin="round" stroke-width="3.000000"
	d="
M218.500000,94.500000 
	C216.392960,96.952583 212.672073,96.177483 210.500000,98.500000 
"/>
<path fill="none" opacity="1.000000" stroke="#000000" stroke-linecap="round" stroke-linejoin="round" stroke-width="3.000000"
	d="
M206.000000,92.500000 
	C208.488800,97.677872 211.964172,101.869164 217.500000,104.000000 
"/>
<path fill="none" opacity="1.000000" stroke="#000000" stroke-linecap="round" stroke-linejoin="round" stroke-width="3.000000"
	d="
M127.000000,95.500000 
	C124.685272,99.579788 125.097763,104.069992 124.967407,108.499039 
	C124.906769,110.559395 126.019264,111.714157 127.500000,112.750000 
"/>
<path fill="none" opacity="1.000000" stroke="#000000" stroke-linecap="round" stroke-linejoin="round" stroke-width="2.000000"
	d="
M157.000000,54.000000 
	C157.843948,57.003838 159.527283,59.297424 162.500000,60.500000 
"/>
<path fill="none" opacity="1.000000" stroke="#000000" stroke-linecap="round" stroke-linejoin="round" stroke-width="3.000000"
	d="
M134.000000,85.000000 
	C131.855438,85.895180 131.855438,85.895180 127.001923,93.996407 
	C128.834045,96.581985 132.388138,95.938911 134.500000,98.000000 
"/>
<path fill="none" opacity="1.000000" stroke="#000000" stroke-linecap="round" stroke-linejoin="round" stroke-width="2.000000"
	d="
M143.000000,97.000000 
	C144.474487,101.981781 141.440109,106.432198 135.500000,108.000000 
"/>
<path fill="none" opacity="1.000000" stroke="#000000" stroke-linecap="round" stroke-linejoin="round" stroke-width="4.000000"
	d="
M185.500000,79.500000 
	C188.241852,84.948204 193.702209,84.506310 198.500000,85.500000 
"/>
<path fill="none" opacity="1.000000" stroke="#000000" stroke-linecap="round" stroke-linejoin="round" stroke-width="3.000000"
	d="
M145.000000,63.500000 
	C142.308304,66.132057 145.888657,67.799179 146.000000,70.000000 
"/>
<path fill="none" opacity="1.000000" stroke="#000000" stroke-linecap="round" stroke-linejoin="round" stroke-width="2.000000"
	d="
M126.000000,100.000000 
	C128.005432,100.650368 130.222488,100.665878 132.000000,102.000000 
"/>
<path fill="none" opacity="1.000000" stroke="#000000" stroke-linecap="round" stroke-linejoin="round" stroke-width="3.000000"
	d="
M207.250000,77.000000 
	C204.587997,77.696289 203.270798,80.260368 201.000000,81.500000 
"/>
<path fill="none" opacity="1.000000" stroke="#000000" stroke-linecap="round" stroke-linejoin="round" stroke-width="2.000000"
	d="
M334.500000,277.000000 
	C331.833344,277.901093 329.166656,277.829498 326.121063,277.264954 
	C324.472565,278.703186 322.899658,280.651093 323.000000,283.500000 
"/>
<path fill="none" opacity="1.000000" stroke="#000000" stroke-linecap="round" stroke-linejoin="round" stroke-width="3.000000"
	d="
M130.000000,90.500000 
	C132.000000,91.666664 134.000000,92.833336 136.000000,94.000000 
"/>
<path fill="none" opacity="1.000000" stroke="#000000" stroke-linecap="round" stroke-linejoin="round" stroke-width="3.000000"
	d="
M180.500000,82.500000 
	C177.836639,83.112579 177.440826,84.732964 178.500000,87.000000 
"/>
<path fill="none" opacity="1.000000" stroke="#000000" stroke-linecap="round" stroke-linejoin="round" stroke-width="3.000000"
	d="
M173.500000,82.500000 
	C173.332718,86.747223 173.747925,87.138947 177.501282,87.072571 
	C178.158905,87.060936 178.833344,87.999992 179.500000,88.499992 
"/>
<path fill="none" opacity="1.000000" stroke="#000000" stroke-linecap="round" stroke-linejoin="round" stroke-width="3.000000"
	d="
M147.500000,51.500000 
	C146.238464,54.096565 143.940933,52.894512 142.000000,53.000000 
"/>
<path fill="none" opacity="1.000000" stroke="#000000" stroke-linecap="round" stroke-linejoin="round" stroke-width="3.000000"
	d="
M180.500000,15.000000 
	C175.500000,13.546931 170.500000,13.617664 165.500000,15.000000 
"/>
<path fill="none" opacity="1.000000" stroke="#000000" stroke-linecap="round" stroke-linejoin="round" stroke-width="2.000000"
	d="
M204.500000,84.500000 
	C202.729095,85.353447 200.837143,84.875267 199.000000,85.000000 
"/>
<path fill="none" opacity="1.000000" stroke="#000000" stroke-linecap="round" stroke-linejoin="round" stroke-width="3.000000"
	d="
M133.500000,106.000000 
	C135.616241,107.987000 136.482910,110.241760 135.000000,113.000000 
"/>
<path fill="none" opacity="1.000000" stroke="#000000" stroke-linecap="round" stroke-linejoin="round" stroke-width="3.000000"
	d="
M159.000000,28.500000 
	C156.500000,29.534243 154.000000,30.430861 151.500000,28.500000 
"/>
<path fill="none" opacity="1.000000" stroke="#000000" stroke-linecap="round" stroke-linejoin="round" stroke-width="2.000000"
	d="
M161.000000,26.500000 
	C159.175186,28.251421 158.997528,30.277367 160.000000,32.500000 
"/>
<path fill="none" opacity="1.000000" stroke="#000000" stroke-linecap="round" stroke-linejoin="round" stroke-width="4.000000"
	d="
M172.500000,26.500000 
	C176.258011,27.599804 180.739838,24.537596 184.000000,28.500000 
"/>
<path fill="none" opacity="1.000000" stroke="#000000" stroke-linecap="round" stroke-linejoin="round" stroke-width="3.000000"
	d="
M145.500000,265.000000 
	C144.597031,265.097015 144.017578,265.596619 144.013077,266.500061 
	C143.986557,271.838470 144.000000,277.177094 144.000000,282.432373 
	C153.441910,283.709534 158.320953,280.456818 158.000000,273.500000 
	C157.723297,267.502533 154.190323,265.000000 146.000000,265.000000 
"/>
<path fill="none" opacity="1.000000" stroke="#000000" stroke-linecap="round" stroke-linejoin="round" stroke-width="3.000000"
	d="
M89.000000,265.000000 
	C81.526756,268.667358 79.716728,275.907501 85.000008,281.000000 
	C87.792686,283.691833 92.937920,283.691864 96.000008,281.000000 
	C99.120171,278.257111 100.246750,271.876068 97.978920,269.016724 
	C95.845581,266.326904 93.329018,264.217499 89.500000,265.000000 
"/>
</svg>